PathFileType	4	(X/Y/Z)	/Users/itak/Documents/Research/Walk-IL/dataset/trc/00566_00009.trc
DataRate	CameraRate	NumFrames	NumMarkers	Units	OrigDataRate	OrigDataStartFrame	OrigNumFrames
100.000000	100.000000	4	55	mm	100.000000	123	494
Frame#	Time	RPSI			LPSI			L3			STRN			T10			C7			CLAV			RBAK			LBAK			LSHO			LUPA			LAEL			LAOL			LWPS			LFRA			LHPS			LHTS			RSHO			RUPA			RAEL			RAOL			RWTS			RWPS			RFRA			RIFD			RHTS			RHPS			RBHD			LFHD			RFHD			LBHD			LHIP			RASI			LASI			LKNE			LTHI			LANK			LTIP			LTOE			LMT1			LMT5			LHEE			RKNE			RTHI			RANK			RTIP			RTOE			RMT1			RMT5			RHEE			RHIP			LWTS			LIFD			*53			*54			
		X1	Y1	Z1	X2	Y2	Z2	X3	Y3	Z3	X4	Y4	Z4	X5	Y5	Z5	X6	Y6	Z6	X7	Y7	Z7	X8	Y8	Z8	X9	Y9	Z9	X10	Y10	Z10	X11	Y11	Z11	X12	Y12	Z12	X13	Y13	Z13	X14	Y14	Z14	X15	Y15	Z15	X16	Y16	Z16	X17	Y17	Z17	X18	Y18	Z18	X19	Y19	Z19	X20	Y20	Z20	X21	Y21	Z21	X22	Y22	Z22	X23	Y23	Z23	X24	Y24	Z24	X25	Y25	Z25	X26	Y26	Z26	X27	Y27	Z27	X28	Y28	Z28	X29	Y29	Z29	X30	Y30	Z30	X31	Y31	Z31	X32	Y32	Z32	X33	Y33	Z33	X34	Y34	Z34	X35	Y35	Z35	X36	Y36	Z36	X37	Y37	Z37	X38	Y38	Z38	X39	Y39	Z39	X40	Y40	Z40	X41	Y41	Z41	X42	Y42	Z42	X43	Y43	Z43	X44	Y44	Z44	X45	Y45	Z45	X46	Y46	Z46	X47	Y47	Z47	X48	Y48	Z48	X49	Y49	Z49	X50	Y50	Z50	X51	Y51	Z51	X52	Y52	Z52	X53	Y53	Z53	X54	Y54	Z54	X55	Y55	Z55	

124	1.23	-1171.66259765625	1004.731506347656	-353.7266845703125	-1132.629272460938	1005.55078125	-482.2902526855469	-1134.3134765625	1101.145385742188	-425.718505859375	-884.1010131835938	1257.083984375	-365.9413452148438	-1125.100219726562	1228.343627929688	-432.1145324707031	-1039.882080078125	1493.017333984375	-403.048828125	-885.556884765625	1368.907470703125	-366.8786315917969	-1149.462280273438	1381.655151367188	-340.6004638671875	-1054.429321289062	1444.163208007812	-502.8767700195312	-934.5684814453125	1452.069213867188	-554.9774780273438	-931.829345703125	1323.79443359375	-632.828857421875	-916.7882080078125	1100.371826171875	-643.4938354492188	-1016.696533203125	1098.211181640625	-629.0594482421875	-877.7116088867188	833.0865478515625	-638.9816284179688	-897.30859375	1013.470397949219	-639.0743408203125	-875.6089477539062	773.5006713867188	-626.714111328125	-842.7018432617188	781.4698486328125	-571.34375	-1030.881713867188	1449.0498046875	-236.497314453125	-1074.055908203125	1387.566772460938	-177.0737609863281	-1126.282348632812	1101.057983398438	-141.0235290527344	-1172.423828125	1089.526489257812	-182.6932373046875	-1013.884582519531	864.9572143554688	-142.0738983154297	-1079.67529296875	851.4065551757812	-92.52695465087891	-1125.728637695312	1044.705200195312	-131.8435821533203	-1028.98779296875	691.6281127929688	-140.9095306396484	-1003.817687988281	770.6400146484375	-120.9138565063477	-1072.55078125	775.611083984375	-90.61255645751953	-941.3994750976562	1664.215576171875	-305.1827697753906	-756.6599731445312	1641.664306640625	-397.1182250976562	-809.0123291015625	1644.209838867188	-262.7276611328125	-875.29296875	1657.881958007812	-456.7043151855469	-974.1318969726562	897.254638671875	-571.631103515625	-983.837158203125	961.3428955078125	-244.1184387207031	-920.744873046875	927.422119140625	-510.6858520507812	-1064.543701171875	472.5287780761719	-508.7799682617188	-1021.872741699219	631.3580932617188	-544.5718994140625	-1229.487548828125	27.28361320495605	-507.4938049316406	-1171.498779296875	242.8804473876953	-521.0527954101562	-1034.167724609375	34.68788528442383	-408.0887756347656	-1112.401245117188	40.29396057128906	-388.6195068359375	-1106.649047851562	29.97861480712891	-497.7237243652344	-1308.343383789062	35.51255798339844	-468.4126586914062	-877.6407470703125	534.9683837890625	-193.8860321044922	-998.0278930664062	802.64599609375	-179.9257659912109	-949.7467041015625	58.6277961730957	-249.4154968261719	-865.6155395507812	386.2485961914062	-207.2666625976562	-734.2052612304688	91.83030700683594	-221.784912109375	-779.8681640625	78.01969909667969	-281.5167846679688	-833.189208984375	75.14525604248047	-192.4018402099609	-985.2905883789062	42.86765289306641	-314.2527770996094	-1077.837158203125	938.4628295898438	-201.8975982666016	-862.1644287109375	858.0950317382812	-556.927490234375	-879.9927368164062	687.882080078125	-558.3807373046875	nan	nan	nan	nan	nan	nan	
125	1.24	-1167.216674804688	1003.822570800781	-351.9850158691406	-1128.2919921875	1004.794311523438	-480.5750122070312	-1130.016479492188	1100.4326171875	-424.0487060546875	-879.5728149414062	1256.08544921875	-364.2941589355469	-1120.560546875	1227.56640625	-430.3564758300781	-1035.135009765625	1492.16162109375	-401.2520751953125	-880.885986328125	1367.933837890625	-365.16259765625	-1144.773315429688	1380.859741210938	-338.8527526855469	-1049.77587890625	1443.355712890625	-501.0788269042969	-929.9252319335938	1451.177368164062	-553.22705078125	-927.2973022460938	1322.921508789062	-631.151611328125	-912.3450317382812	1099.49365234375	-641.8270263671875	-1012.255737304688	1097.411376953125	-627.4163208007812	-873.3851318359375	832.1651611328125	-637.427490234375	-892.880126953125	1012.585327148438	-637.4591064453125	-871.3540649414062	772.5861206054688	-625.19775390625	-838.5572509765625	780.4356689453125	-569.7647705078125	-1026.169067382812	1448.09228515625	-234.6919555664062	-1069.369262695312	1386.61572265625	-175.3439483642578	-1121.875122070312	1100.101318359375	-139.5020294189453	-1168.161865234375	1088.738891601562	-181.2229614257812	-1009.6884765625	863.9495849609375	-140.8171081542969	-1075.485107421875	850.3923950195312	-91.26750946044922	-1121.381713867188	1043.778686523438	-130.3938598632812	-1024.889038085938	690.630615234375	-139.8773498535156	-999.6988525390625	769.6036376953125	-119.7592010498047	-1068.428833007812	774.597900390625	-89.42875671386719	-936.2023315429688	1663.317504882812	-303.2337341308594	-751.529296875	1640.287231445312	-395.1923522949219	-803.8785400390625	1642.815551757812	-260.8165283203125	-870.1058349609375	1656.982788085938	-454.7666320800781	-969.7841186523438	896.4160766601562	-570.1255493164062	-979.2123413085938	960.4973754882812	-242.6576995849609	-916.6700439453125	926.478515625	-509.3089294433594	-1062.317138671875	472.212890625	-507.9723815917969	-1018.836242675781	630.8750610351562	-543.384033203125	-1229.451049804688	27.57818222045898	-507.3636474609375	-1170.48291015625	243.0982208251953	-520.63427734375	-1034.200439453125	34.68782424926758	-408.0260925292969	-1112.353271484375	40.28894424438477	-388.6482238769531	-1106.674682617188	29.99184036254883	-497.7044982910156	-1308.289672851562	36.19473266601562	-468.3858032226562	-871.0178833007812	535.21533203125	-192.3016510009766	-992.4445190429688	802.5262451171875	-178.1504821777344	-935.1819458007812	57.5910758972168	-247.4679565429688	-856.7837524414062	386.7191772460938	-205.4730529785156	-720.0658569335938	93.23319244384766	-219.4051055908203	-765.4447631835938	79.038818359375	-279.2330627441406	-818.9867553710938	75.43899536132812	-190.1558074951172	-970.44189453125	41.55756759643555	-312.3699035644531	-1073.158813476562	937.6878051757812	-200.3438415527344	-857.8184814453125	857.1788940429688	-555.3983764648438	-875.8202514648438	687.0513305664062	-556.9406127929688	nan	nan	nan	nan	nan	nan	
126	1.25	-1162.649536132812	1002.863403320312	-350.1687316894531	-1123.836303710938	1004.008239746094	-478.7871704101562	-1125.6123046875	1099.690307617188	-422.3117065429688	-874.923095703125	1255.062744140625	-362.5801391601562	-1115.8994140625	1226.755859375	-428.5211181640625	-1030.28466796875	1491.27587890625	-399.3739929199219	-876.1016235351562	1366.93603515625	-363.3723754882812	-1139.981689453125	1380.026977539062	-337.0271301269531	-1045.0224609375	1442.521118164062	-499.2062072753906	-925.1773681640625	1450.260375976562	-551.4002685546875	-922.69140625	1322.029541015625	-629.4014282226562	-907.8496704101562	1098.597900390625	-640.1187744140625	-1007.77099609375	1096.624633789062	-625.6954956054688	-869.064208984375	831.2238159179688	-635.8650512695312	-888.4174194335938	1011.670593261719	-635.7985229492188	-867.1185302734375	771.64990234375	-623.6751098632812	-834.3775634765625	779.37744140625	-568.1766967773438	-1021.353759765625	1447.1015625	-232.8092346191406	-1064.580078125	1385.6259765625	-173.5424194335938	-1117.341064453125	1099.090454101562	-137.9152679443359	-1163.786376953125	1087.91064453125	-179.6504516601562	-1005.367919921875	862.8948364257812	-139.4756469726562	-1071.1689453125	849.3306884765625	-89.93541717529297	-1116.905883789062	1042.80712890625	-128.8778381347656	-1020.655883789062	689.5875854492188	-138.7666015625	-995.438720703125	768.52880859375	-118.5311126708984	-1064.178955078125	773.5437622070312	-88.16616821289062	-930.9385375976562	1662.39453125	-301.20068359375	-746.3250732421875	1638.920043945312	-393.1851806640625	-798.6802368164062	1641.415893554688	-258.8269653320312	-864.8556518554688	1656.0625	-452.7481689453125	-965.3412475585938	895.5805053710938	-568.572998046875	-974.4395751953125	959.5907592773438	-241.1382293701172	-912.5235595703125	925.4889526367188	-507.8709716796875	-1059.994873046875	471.9103393554688	-507.1612854003906	-1015.726440429688	630.4277954101562	-542.1878662109375	-1229.400390625	27.89414024353027	-507.2398071289062	-1169.420043945312	243.3512725830078	-520.1956787109375	-1034.2158203125	34.70346450805664	-407.9600524902344	-1112.305297851562	40.28798675537109	-388.6697692871094	-1106.696166992188	30.01505279541016	-497.6857604980469	-1308.221435546875	36.96073150634766	-468.352294921875	-864.3902587890625	535.3273315429688	-190.7213439941406	-986.8873291015625	802.2474975585938	-176.3398742675781	-920.7161865234375	56.58050918579102	-245.514892578125	-848.0144653320312	387.0921936035156	-203.680908203125	-706.0437622070312	94.5538330078125	-217.0073547363281	-751.1517333984375	80.00243377685547	-276.9267272949219	-804.9002075195312	75.70256805419922	-187.8994903564453	-955.7102661132812	40.32824325561523	-310.4545288085938	-1068.329711914062	936.8383178710938	-198.7552185058594	-853.4371337890625	856.2389526367188	-553.8602905273438	-871.6124877929688	686.1965942382812	-555.4915161132812	nan	nan	nan	nan	nan	nan	
127	1.26	-1157.956909179688	1001.857360839844	-348.2769775390625	-1119.260986328125	1003.190368652344	-476.9222106933594	-1121.1005859375	1098.918212890625	-420.50341796875	-870.1472778320312	1254.017578125	-360.7988891601562	-1111.117309570312	1225.912841796875	-426.6070556640625	-1025.328735351562	1490.36279296875	-397.4093627929688	-871.2011108398438	1365.915771484375	-361.509033203125	-1135.088256835938	1379.156372070312	-335.1183471679688	-1040.165649414062	1441.662353515625	-497.2571105957031	-920.3256225585938	1449.322143554688	-549.4955444335938	-918.002685546875	1321.121459960938	-627.574951171875	-903.2959594726562	1097.688354492188	-638.3701782226562	-1003.230346679688	1095.838134765625	-623.8967895507812	-864.7457275390625	830.2672119140625	-634.2959594726562	-883.920166015625	1010.730041503906	-634.0947875976562	-862.8928833007812	770.6967163085938	-622.1478271484375	-830.1640625	778.296142578125	-566.5780029296875	-1016.427917480469	1446.080810546875	-230.8510437011719	-1059.686401367188	1384.597534179688	-171.6639556884766	-1112.67919921875	1098.029663085938	-136.2625122070312	-1159.286376953125	1087.039428710938	-177.9755096435547	-1000.923889160156	861.7907104492188	-138.0437927246094	-1066.72509765625	848.2218017578125	-88.52872467041016	-1112.298706054688	1041.791015625	-127.293701171875	-1016.293090820312	688.49755859375	-137.5680694580078	-991.0379028320312	767.4124755859375	-117.2240600585938	-1059.798950195312	772.4482421875	-86.82804107666016	-925.6088256835938	1661.447631835938	-299.0853576660156	-741.0440673828125	1637.565063476562	-391.0939331054688	-793.4150390625	1640.017333984375	-256.7520446777344	-859.5385131835938	1655.121337890625	-450.6469116210938	-960.81298828125	894.7586669921875	-566.973388671875	-969.5100708007812	958.6219482421875	-239.5646820068359	-908.3096313476562	924.4517211914062	-506.3746948242188	-1057.556030273438	471.6261596679688	-506.3546142578125	-1012.527709960938	630.01123046875	-540.977294921875	-1229.338745117188	28.23860931396484	-507.1139221191406	-1168.304931640625	243.6380462646484	-519.7247314453125	-1034.211181640625	34.72128295898438	-407.8946533203125	-1112.253540039062	40.29345703125	-388.6865234375	-1106.710083007812	30.04926872253418	-497.6659240722656	-1308.134399414062	37.8094482421875	-468.3102111816406	-857.779052734375	535.2861328125	-189.1410827636719	-981.3663330078125	801.7992553710938	-174.5019226074219	-906.3818969726562	55.58390426635742	-243.562744140625	-839.3278198242188	387.3519287109375	-201.8918609619141	-692.1770629882812	95.80536651611328	-214.5930328369141	-737.0167846679688	80.91684722900391	-274.6178894042969	-790.9579467773438	75.93488311767578	-185.6446990966797	-941.1333618164062	39.15787887573242	-308.4992370605469	-1063.359375	935.915283203125	-197.1196594238281	-849.021728515625	855.2760620117188	-552.3119506835938	-867.371337890625	685.3173217773438	-554.0316162109375	nan	nan	nan	nan	nan	nan	
